<svg width="1200" height="1200" viewBox="0 0 1200 1200" fill="none" xmlns="http://www.w3.org/2000/svg">
  <defs>
    <linearGradient id="bg2" x1="0" y1="0" x2="1" y2="1">
      <stop offset="0%" stop-color="#A855F7" />
      <stop offset="100%" stop-color="#EC4899" />
    </linearGradient>
  </defs>
  <rect width="1200" height="1200" rx="120" fill="url(#bg2)" />
  <path d="M370 640C370 564.773 430.773 504 506 504H694C769.227 504 830 564.773 830 640V776H370V640Z" fill="#fff" opacity="0.9" />
  <circle cx="600" cy="330" r="190" fill="#FECACA" />
  <path d="M502 260C502 242.326 517.326 227 535 227H665C682.674 227 698 242.326 698 260V281H502V260Z" fill="#fff" opacity="0.4" />
  <path d="M460 500C460 473.074 483.074 450 510 450H690C716.926 450 740 473.074 740 500V550H460V500Z" fill="#FDE68A" />
  <circle cx="530" cy="330" r="28" fill="#9333EA" />
  <circle cx="670" cy="330" r="28" fill="#9333EA" />
  <path d="M520 420C520 445 560 470 600 470C640 470 680 445 680 420" stroke="#7C3AED" stroke-width="25" stroke-linecap="round" />
  <path d="M300 900C300 780 420 680 540 680H660C780 680 900 780 900 900V980H300V900Z" fill="#ffffff" opacity="0.1" />
</svg>
