<svg width="1200" height="1200" viewBox="0 0 1200 1200" fill="none" xmlns="http://www.w3.org/2000/svg">
  <defs>
    <linearGradient id="bg3" x1="0" y1="0" x2="1" y2="1">
      <stop offset="0%" stop-color="#22C55E" />
      <stop offset="100%" stop-color="#0EA5E9" />
    </linearGradient>
  </defs>
  <rect width="1200" height="1200" rx="120" fill="url(#bg3)" />
  <circle cx="620" cy="340" r="180" fill="#ECFDF5" />
  <path d="M480 520C480 466.163 526.163 420 580 420H620C673.837 420 720 466.163 720 520V650H480V520Z" fill="#fff" opacity="0.8" />
  <path d="M500 720C500 688.654 528.654 660 560 660H640C671.346 660 700 688.654 700 720V820H500V720Z" fill="#fff" opacity="0.6" />
  <circle cx="560" cy="335" r="30" fill="#1E3A8A" />
  <circle cx="680" cy="335" r="30" fill="#1E3A8A" />
  <path d="M535 420C535 442 575 460 600 460C625 460 665 442 665 420" stroke="#1E40AF" stroke-width="24" stroke-linecap="round" />
  <path d="M560 850C520 800 520 760 560 720H640C680 760 680 800 640 850H560Z" fill="#ffffff" opacity="0.25" />
</svg>
